# 3ds Max Wavefront OBJ Exporter v0.99 - (c)2007 guruware
# File Created: 10.03.2021 19:39:52

mtllib shell.mtl

#
# object Box001
#

v  -28.1878 2.1974 16.3082
v  -27.1942 1.8065 15.3994
v  -28.2263 1.2778 15.4425
v  -28.8018 1.2778 16.3063
v  -29.3876 1.8065 17.2422
v  -29.1601 2.0163 17.2541
v  -26.1862 1.2778 14.7323
v  -27.5000 1.2778 15.0597
v  -29.5805 1.8065 17.7533
v  -28.8255 2.1974 17.5250
v  -29.9113 1.8065 18.6216
v  -28.6830 2.1974 17.9667
v  -28.5901 2.1974 18.4317
v  -28.5798 2.1974 18.8595
v  -29.9901 1.8065 19.2463
v  -28.6177 2.1974 19.2463
v  -29.8171 1.2778 17.3676
v  -29.9109 1.2778 17.8852
v  -29.9114 1.2778 18.6216
v  -29.9901 1.2778 19.2463
v  -29.3876 1.2778 17.2422
v  -25.7672 2.1974 18.5051
v  -23.7637 1.8065 18.2478
v  -24.0034 1.7425 17.6721
v  -25.8680 2.1357 18.1074
v  -22.3171 1.2778 18.3204
v  -22.6876 1.2778 17.5194
v  -22.7225 1.2778 16.7310
v  -24.3135 1.8065 17.1048
v  -26.0163 2.1974 17.7166
v  -28.2111 2.1974 18.5794
v  -26.3125 2.1380 17.3615
v  -28.2761 2.1974 18.0787
v  -24.6417 1.7478 16.6795
v  -23.3124 1.2778 16.2194
v  -23.4666 1.2778 15.6724
v  -24.9915 1.8065 16.2554
v  -26.6371 2.1974 17.0111
v  -25.7134 2.1974 19.2463
v  -23.6913 1.8065 19.2463
v  -23.7299 1.7501 18.7487
v  -25.7298 2.1394 18.8916
v  -22.4089 1.2778 19.2463
v  -22.4884 1.2778 18.7734
v  -28.2178 2.1974 19.0327
v  -24.8398 1.2778 15.1177
v  -26.1997 1.8065 15.6661
v  -25.5846 1.7486 15.9661
v  -24.4970 1.2778 15.4574
v  -27.3450 2.1974 16.4542
v  -26.9669 2.1357 16.7284
v  -28.4153 2.1974 17.5775
v  -27.7502 2.1388 16.3854
v  -28.6844 2.1974 17.1799
v  -26.6736 1.7461 15.5327
v  -25.8216 1.2778 15.0234
v  -28.1878 2.1974 22.1843
v  -29.1601 2.0163 21.2384
v  -29.3876 1.8065 21.2503
v  -28.8018 1.2778 22.1863
v  -28.2263 1.2778 23.0500
v  -27.1942 1.8065 23.0931
v  -26.1862 1.2778 23.7602
v  -27.5000 1.2778 23.4328
v  -29.5805 1.8065 20.7392
v  -28.8255 2.1974 20.9675
v  -28.6830 2.1974 20.5258
v  -29.9113 1.8065 19.8709
v  -28.5901 2.1974 20.0608
v  -28.5798 2.1974 19.6330
v  -29.9109 1.2778 20.6073
v  -29.8171 1.2778 21.1249
v  -29.9114 1.2778 19.8709
v  -29.3876 1.2778 21.2503
v  -25.7672 2.1974 19.9874
v  -25.8680 2.1357 20.3851
v  -24.0034 1.7425 20.8204
v  -23.7637 1.8065 20.2447
v  -22.6876 1.2778 20.9731
v  -22.3171 1.2778 20.1721
v  -22.7225 1.2778 21.7615
v  -24.3135 1.8065 21.3877
v  -26.0163 2.1974 20.7759
v  -28.2111 2.1974 19.9131
v  -28.2761 2.1974 20.4138
v  -26.3125 2.1380 21.1310
v  -24.6417 1.7478 21.8130
v  -23.3124 1.2778 22.2731
v  -23.4666 1.2778 22.8202
v  -24.9915 1.8065 22.2371
v  -26.6371 2.1974 21.4814
v  -25.7298 2.1394 19.6009
v  -23.7299 1.7501 19.7438
v  -22.4884 1.2778 19.7191
v  -28.2178 2.1974 19.4598
v  -24.8398 1.2778 23.3748
v  -24.4970 1.2778 23.0351
v  -25.5846 1.7486 22.5265
v  -26.1997 1.8065 22.8264
v  -26.9669 2.1357 21.7641
v  -27.3450 2.1974 22.0383
v  -28.4153 2.1974 20.9151
v  -28.6844 2.1974 21.3126
v  -27.7502 2.1388 22.1071
v  -26.6736 1.7461 22.9598
v  -25.8216 1.2778 23.4691
v  -28.1878 0.3581 16.3082
v  -29.1601 0.5393 17.2541
v  -29.3876 0.7491 17.2422
v  -27.1942 0.7491 15.3994
v  -29.5805 0.7491 17.7533
v  -28.8255 0.3581 17.5250
v  -28.6830 0.3581 17.9667
v  -29.9113 0.7491 18.6216
v  -28.5901 0.3581 18.4317
v  -28.5798 0.3581 18.8595
v  -28.6177 0.3581 19.2463
v  -29.9901 0.7491 19.2463
v  -25.7672 0.3581 18.5051
v  -25.8680 0.4199 18.1074
v  -24.0034 0.8130 17.6721
v  -23.7637 0.7491 18.2478
v  -24.3135 0.7491 17.1048
v  -26.0163 0.3581 17.7166
v  -28.2111 0.3581 18.5794
v  -28.2761 0.3581 18.0787
v  -26.3125 0.4176 17.3615
v  -24.6417 0.8078 16.6795
v  -24.9915 0.7491 16.2554
v  -26.6371 0.3581 17.0111
v  -25.7134 0.3581 19.2463
v  -25.7298 0.4162 18.8916
v  -23.7299 0.8054 18.7487
v  -23.6913 0.7491 19.2463
v  -28.2178 0.3581 19.0327
v  -25.5846 0.8070 15.9661
v  -26.1997 0.7491 15.6661
v  -26.9669 0.4199 16.7284
v  -27.3450 0.3581 16.4542
v  -28.4153 0.3581 17.5775
v  -28.6844 0.3581 17.1799
v  -27.7502 0.4167 16.3854
v  -26.6736 0.8095 15.5327
v  -28.1878 0.3581 22.1843
v  -27.1942 0.7491 23.0931
v  -29.3876 0.7491 21.2503
v  -29.1601 0.5393 21.2384
v  -29.5805 0.7491 20.7392
v  -28.8255 0.3581 20.9675
v  -29.9113 0.7491 19.8709
v  -28.6830 0.3581 20.5258
v  -28.5901 0.3581 20.0608
v  -28.5798 0.3581 19.6330
v  -25.7672 0.3581 19.9874
v  -23.7637 0.7491 20.2447
v  -24.0034 0.8130 20.8204
v  -25.8680 0.4199 20.3851
v  -24.3135 0.7491 21.3877
v  -26.0163 0.3581 20.7759
v  -28.2111 0.3581 19.9131
v  -26.3125 0.4176 21.1310
v  -28.2761 0.3581 20.4138
v  -24.6417 0.8078 21.8130
v  -24.9915 0.7491 22.2371
v  -26.6371 0.3581 21.4814
v  -23.7299 0.8054 19.7438
v  -25.7298 0.4162 19.6009
v  -28.2178 0.3581 19.4598
v  -26.1997 0.7491 22.8264
v  -25.5846 0.8070 22.5265
v  -27.3450 0.3581 22.0383
v  -26.9669 0.4199 21.7641
v  -28.4153 0.3581 20.9151
v  -27.7502 0.4167 22.1071
v  -28.6844 0.3581 21.3126
v  -26.6736 0.8095 22.9598
# 176 vertices

vn -0.4379 0.7775 -0.4513
vn -0.0766 0.8101 -0.5812
vn -0.7414 0.0000 -0.6711
vn -0.8344 0.0000 -0.5511
vn -0.6926 0.4924 -0.5271
vn -0.5275 0.8100 -0.2562
vn 0.3529 -0.0000 -0.9357
vn 1.0000 0.0000 -0.0000
vn -0.7018 0.6664 -0.2518
vn -0.2590 0.9659 0.0003
vn -0.8013 0.5694 -0.1836
vn -0.1302 0.9909 0.0350
vn -0.1335 0.9909 0.0150
vn -0.1359 0.9907 -0.0057
vn -0.8143 0.5804 -0.0000
vn -0.1467 0.9892 0.0000
vn -0.8407 -0.0000 -0.5415
vn -0.9971 -0.0000 -0.0759
vn -0.9980 -0.0000 -0.0629
vn -1.0000 0.0000 -0.0000
vn -0.6034 0.0000 -0.7974
vn 0.0975 0.9951 -0.0180
vn 0.2742 0.9589 -0.0726
vn 0.2532 0.9600 -0.1197
vn 0.1126 0.9929 -0.0379
vn 0.9998 0.0000 -0.0209
vn 0.9674 0.0000 -0.2532
vn 0.9166 0.0000 -0.3998
vn 0.2262 0.9607 -0.1608
vn 0.1030 0.9932 -0.0533
vn 0.0224 0.9997 0.0020
vn 0.0970 0.9913 -0.0891
vn 0.0241 0.9997 -0.0022
vn 0.2182 0.9605 -0.1728
vn 0.8142 -0.0000 -0.5805
vn 0.7509 -0.0000 -0.6604
vn 0.1820 0.9512 -0.2491
vn 0.0755 0.9926 -0.0952
vn 0.0971 0.9953 -0.0000
vn 0.2894 0.9572 -0.0000
vn 0.2754 0.9612 -0.0172
vn 0.1088 0.9939 -0.0153
vn 0.9936 -0.0000 0.1128
vn 0.0200 0.9998 0.0027
vn 0.5274 -0.0000 -0.8496
vn 0.1246 0.9035 -0.4100
vn 0.1627 0.9286 -0.3334
vn 0.3485 -0.0000 -0.9373
vn 0.0440 0.9788 -0.1998
vn 0.0934 0.9880 -0.1228
vn 0.0337 0.9994 -0.0025
vn 0.0333 0.9759 -0.2157
vn -0.1843 0.9574 -0.2223
vn 0.1156 0.8940 -0.4330
vn 0.2486 -0.0000 -0.9686
vn -0.4379 0.7775 0.4513
vn -0.5275 0.8100 0.2562
vn -0.6926 0.4924 0.5271
vn -0.8344 0.0000 0.5511
vn -0.7414 0.0000 0.6711
vn -0.0766 0.8101 0.5812
vn 0.3529 -0.0000 0.9357
vn -0.7018 0.6664 0.2518
vn -0.2590 0.9659 -0.0003
vn -0.1302 0.9909 -0.0350
vn -0.8013 0.5694 0.1836
vn -0.1335 0.9909 -0.0150
vn -0.1359 0.9907 0.0057
vn -0.9971 -0.0000 0.0759
vn -0.8407 -0.0000 0.5415
vn -0.9980 -0.0000 0.0629
vn -0.6034 0.0000 0.7974
vn 0.0975 0.9951 0.0180
vn 0.1126 0.9929 0.0379
vn 0.2532 0.9600 0.1197
vn 0.2742 0.9589 0.0726
vn 0.9674 -0.0000 0.2532
vn 0.9998 0.0000 0.0209
vn 0.9166 -0.0000 0.3998
vn 0.2262 0.9607 0.1608
vn 0.1030 0.9932 0.0533
vn 0.0224 0.9997 -0.0020
vn 0.0241 0.9997 0.0022
vn 0.0970 0.9913 0.0891
vn 0.2182 0.9605 0.1728
vn 0.8142 0.0000 0.5805
vn 0.7509 0.0000 0.6604
vn 0.1820 0.9512 0.2491
vn 0.0755 0.9926 0.0952
vn 0.1088 0.9939 0.0153
vn 0.2754 0.9612 0.0172
vn 0.9936 -0.0000 -0.1128
vn 0.0200 0.9998 -0.0027
vn 0.5274 0.0000 0.8496
vn 0.3485 0.0000 0.9373
vn 0.1627 0.9286 0.3334
vn 0.1246 0.9035 0.4100
vn 0.0934 0.9880 0.1228
vn 0.0440 0.9788 0.1998
vn 0.0337 0.9994 0.0025
vn -0.1843 0.9574 0.2223
vn 0.0333 0.9759 0.2157
vn 0.1156 0.8940 0.4330
vn 0.2486 -0.0000 0.9686
vn -0.4379 -0.7775 -0.4513
vn -0.5275 -0.8100 -0.2562
vn -0.6926 -0.4924 -0.5271
vn -0.0766 -0.8101 -0.5812
vn -0.7018 -0.6664 -0.2518
vn -0.2590 -0.9659 0.0003
vn -0.1302 -0.9909 0.0350
vn -0.8013 -0.5694 -0.1836
vn -0.1335 -0.9909 0.0150
vn -0.1359 -0.9907 -0.0057
vn -0.1467 -0.9892 0.0000
vn -0.8143 -0.5804 -0.0000
vn 0.0975 -0.9951 -0.0180
vn 0.1126 -0.9929 -0.0379
vn 0.2532 -0.9600 -0.1197
vn 0.2742 -0.9589 -0.0726
vn 0.2262 -0.9607 -0.1608
vn 0.1030 -0.9932 -0.0533
vn 0.0224 -0.9997 0.0020
vn 0.0241 -0.9997 -0.0022
vn 0.0970 -0.9913 -0.0891
vn 0.2182 -0.9605 -0.1728
vn 0.1820 -0.9512 -0.2491
vn 0.0755 -0.9926 -0.0952
vn 0.0971 -0.9953 -0.0000
vn 0.1088 -0.9939 -0.0153
vn 0.2754 -0.9612 -0.0172
vn 0.2894 -0.9572 -0.0000
vn 0.0200 -0.9998 0.0027
vn 0.1627 -0.9286 -0.3334
vn 0.1246 -0.9035 -0.4100
vn 0.0934 -0.9880 -0.1228
vn 0.0440 -0.9788 -0.1998
vn 0.0337 -0.9994 -0.0025
vn -0.1843 -0.9574 -0.2223
vn 0.0333 -0.9759 -0.2157
vn 0.1156 -0.8940 -0.4330
vn -0.4379 -0.7775 0.4513
vn -0.0766 -0.8101 0.5812
vn -0.6926 -0.4924 0.5271
vn -0.5275 -0.8100 0.2562
vn -0.7018 -0.6664 0.2518
vn -0.2590 -0.9659 -0.0003
vn -0.8013 -0.5694 0.1836
vn -0.1302 -0.9909 -0.0350
vn -0.1335 -0.9909 -0.0150
vn -0.1359 -0.9907 0.0057
vn 0.0975 -0.9951 0.0180
vn 0.2742 -0.9589 0.0726
vn 0.2532 -0.9600 0.1197
vn 0.1126 -0.9929 0.0379
vn 0.2262 -0.9607 0.1608
vn 0.1030 -0.9932 0.0533
vn 0.0224 -0.9997 -0.0020
vn 0.0970 -0.9913 0.0891
vn 0.0241 -0.9997 0.0022
vn 0.2182 -0.9605 0.1728
vn 0.1820 -0.9512 0.2491
vn 0.0755 -0.9926 0.0952
vn 0.2754 -0.9612 0.0172
vn 0.1088 -0.9939 0.0153
vn 0.0200 -0.9998 -0.0027
vn 0.1246 -0.9035 0.4100
vn 0.1627 -0.9286 0.3334
vn 0.0440 -0.9788 0.1998
vn 0.0934 -0.9880 0.1228
vn 0.0337 -0.9994 0.0025
vn 0.0333 -0.9759 0.2157
vn -0.1843 -0.9574 0.2223
vn 0.1156 -0.8940 0.4330
# 174 vertex normals

vt 0.1483 0.4602 0.0000
vt 0.1969 0.5200 0.0000
vt 0.1284 0.5312 -0.0000
vt 0.0930 0.4781 -0.0000
vt 0.0779 0.4087 0.0000
vt 0.0956 0.4081 0.0000
vt 0.2538 0.5749 -0.0000
vt 0.1730 0.5547 -0.0000
vt 0.0650 0.3819 0.0000
vt 0.1153 0.3932 0.0000
vt 0.0522 0.3319 0.0000
vt 0.1223 0.3690 0.0000
vt 0.1276 0.3432 0.0000
vt 0.1284 0.3192 0.0000
vt 0.0491 0.2974 0.0000
vt 0.1265 0.2974 0.0000
vt 0.0306 0.4129 -0.0000
vt 0.0249 0.3811 -0.0000
vt 0.0248 0.3358 -0.0000
vt 0.0200 0.2974 -0.0000
vt 0.0570 0.4206 -0.0000
vt 0.2833 0.3408 0.0000
vt 0.3996 0.3572 0.0000
vt 0.3863 0.3920 0.0000
vt 0.2777 0.3639 0.0000
vt 0.4916 0.3543 -0.0000
vt 0.4688 0.4036 -0.0000
vt 0.4667 0.4520 -0.0000
vt 0.3669 0.4250 0.0000
vt 0.2686 0.3863 0.0000
vt 0.1488 0.3352 0.0000
vt 0.2520 0.4066 0.0000
vt 0.1449 0.3634 0.0000
vt 0.3480 0.4508 0.0000
vt 0.4304 0.4835 -0.0000
vt 0.4209 0.5171 -0.0000
vt 0.3261 0.4748 0.0000
vt 0.2331 0.4258 0.0000
vt 0.2865 0.2974 0.0000
vt 0.4039 0.2974 0.0000
vt 0.4025 0.3274 0.0000
vt 0.2859 0.3182 0.0000
vt 0.4859 0.2974 0.0000
vt 0.4811 0.3265 -0.0000
vt 0.1486 0.3096 0.0000
vt 0.3365 0.5512 -0.0000
vt 0.2544 0.5076 0.0000
vt 0.2915 0.4925 0.0000
vt 0.3576 0.5303 -0.0000
vt 0.1930 0.4552 0.0000
vt 0.2146 0.4415 0.0000
vt 0.1372 0.3910 0.0000
vt 0.1715 0.4583 0.0000
vt 0.1231 0.4122 0.0000
vt 0.2270 0.5160 0.0000
vt 0.2762 0.5570 -0.0000
vt 0.1483 0.1346 0.0000
vt 0.0956 0.1868 0.0000
vt 0.0779 0.1862 0.0000
vt 0.0930 0.1167 -0.0000
vt 0.1284 0.0636 -0.0000
vt 0.1969 0.0749 0.0000
vt 0.2538 0.0200 -0.0000
vt 0.1730 0.0401 -0.0000
vt 0.0650 0.2130 0.0000
vt 0.1153 0.2017 0.0000
vt 0.1223 0.2258 0.0000
vt 0.0522 0.2630 0.0000
vt 0.1276 0.2517 0.0000
vt 0.1284 0.2757 0.0000
vt 0.0249 0.2138 -0.0000
vt 0.0306 0.1820 -0.0000
vt 0.0248 0.2590 -0.0000
vt 0.0570 0.1743 -0.0000
vt 0.2833 0.2541 0.0000
vt 0.2777 0.2310 0.0000
vt 0.3863 0.2029 0.0000
vt 0.3996 0.2377 0.0000
vt 0.4688 0.1913 -0.0000
vt 0.4916 0.2405 -0.0000
vt 0.4667 0.1428 -0.0000
vt 0.3669 0.1698 0.0000
vt 0.2686 0.2086 0.0000
vt 0.1488 0.2596 0.0000
vt 0.1449 0.2315 0.0000
vt 0.2520 0.1883 0.0000
vt 0.3480 0.1441 0.0000
vt 0.4304 0.1114 -0.0000
vt 0.4209 0.0778 -0.0000
vt 0.3261 0.1201 0.0000
vt 0.2331 0.1691 0.0000
vt 0.2859 0.2767 0.0000
vt 0.4025 0.2675 0.0000
vt 0.4811 0.2684 -0.0000
vt 0.1486 0.2853 0.0000
vt 0.3365 0.0437 -0.0000
vt 0.3576 0.0646 -0.0000
vt 0.2915 0.1024 0.0000
vt 0.2544 0.0873 0.0000
vt 0.2146 0.1534 0.0000
vt 0.1930 0.1396 0.0000
vt 0.1372 0.2039 0.0000
vt 0.1231 0.1826 0.0000
vt 0.1715 0.1366 0.0000
vt 0.2270 0.0789 0.0000
vt 0.2762 0.0379 -0.0000
vt 0.8486 0.4527 0.0000
vt 0.9039 0.4021 0.0000
vt 0.9218 0.4044 0.0000
vt 0.9068 0.4765 0.0000
vt 0.8624 0.5233 0.0000
vt 0.7950 0.5078 0.0000
vt 0.7369 0.5568 -0.0000
vt 0.8159 0.5429 0.0000
vt 0.9321 0.3735 0.0000
vt 0.8828 0.3860 0.0000
vt 0.8754 0.3609 0.0000
vt 0.9472 0.3227 0.0000
vt 0.8701 0.3345 0.0000
vt 0.8694 0.3103 0.0000
vt 0.8715 0.2884 0.0000
vt 0.9504 0.2884 0.0000
vt 0.9704 0.3700 0.0000
vt 0.9635 0.4014 0.0000
vt 0.9777 0.3261 0.0000
vt 0.9800 0.2884 0.0000
vt 0.9474 0.4233 0.0000
vt 0.7114 0.3307 0.0000
vt 0.7170 0.3533 0.0000
vt 0.6087 0.3800 0.0000
vt 0.5956 0.3462 0.0000
vt 0.5275 0.3911 0.0000
vt 0.5060 0.3435 0.0000
vt 0.5308 0.4375 0.0000
vt 0.6277 0.4122 0.0000
vt 0.7260 0.3753 0.0000
vt 0.8486 0.3262 0.0000
vt 0.8524 0.3547 0.0000
vt 0.7426 0.3954 0.0000
vt 0.6462 0.4374 0.0000
vt 0.5653 0.4681 0.0000
vt 0.5754 0.4999 0.0000
vt 0.6675 0.4610 0.0000
vt 0.7616 0.4147 0.0000
vt 0.7082 0.2884 0.0000
vt 0.7089 0.3086 0.0000
vt 0.5927 0.3174 0.0000
vt 0.5914 0.2884 0.0000
vt 0.5151 0.3164 0.0000
vt 0.5107 0.2884 0.0000
vt 0.8489 0.3005 0.0000
vt 0.6566 0.5341 0.0000
vt 0.6356 0.5150 0.0000
vt 0.7015 0.4785 0.0000
vt 0.7377 0.4939 0.0000
vt 0.7801 0.4306 0.0000
vt 0.8019 0.4451 0.0000
vt 0.8601 0.3830 0.0000
vt 0.8750 0.4053 0.0000
vt 0.8243 0.4492 0.0000
vt 0.7649 0.5026 0.0000
vt 0.7142 0.5414 0.0000
vt 0.8486 0.1241 0.0000
vt 0.7950 0.0690 0.0000
vt 0.8624 0.0535 0.0000
vt 0.9069 0.1003 0.0000
vt 0.9218 0.1724 0.0000
vt 0.9039 0.1747 0.0000
vt 0.7369 0.0200 -0.0000
vt 0.8159 0.0339 0.0000
vt 0.9322 0.2033 0.0000
vt 0.8828 0.1908 0.0000
vt 0.9472 0.2541 0.0000
vt 0.8754 0.2159 0.0000
vt 0.8701 0.2423 0.0000
vt 0.8694 0.2665 0.0000
vt 0.9635 0.1754 0.0000
vt 0.9704 0.2068 0.0000
vt 0.9778 0.2507 0.0000
vt 0.9474 0.1535 0.0000
vt 0.7114 0.2461 0.0000
vt 0.5956 0.2306 0.0000
vt 0.6087 0.1968 0.0000
vt 0.7170 0.2235 0.0000
vt 0.5060 0.2333 0.0000
vt 0.5275 0.1857 0.0000
vt 0.5308 0.1393 0.0000
vt 0.6277 0.1646 0.0000
vt 0.7260 0.2015 0.0000
vt 0.8486 0.2506 0.0000
vt 0.7427 0.1814 0.0000
vt 0.8524 0.2221 0.0000
vt 0.6462 0.1394 0.0000
vt 0.5653 0.1087 0.0000
vt 0.5754 0.0768 0.0000
vt 0.6675 0.1158 0.0000
vt 0.7616 0.1621 0.0000
vt 0.5927 0.2594 0.0000
vt 0.7089 0.2682 0.0000
vt 0.5151 0.2604 0.0000
vt 0.8489 0.2763 0.0000
vt 0.6566 0.0426 0.0000
vt 0.7377 0.0829 0.0000
vt 0.7015 0.0982 0.0000
vt 0.6356 0.0618 0.0000
vt 0.8019 0.1317 0.0000
vt 0.7801 0.1462 0.0000
vt 0.8601 0.1938 0.0000
vt 0.8243 0.1276 0.0000
vt 0.8750 0.1715 0.0000
vt 0.7649 0.0742 0.0000
vt 0.7142 0.0354 0.0000
# 212 texture coords

o Box001
g Box001
usemtl 01___Default
s 4
f 1/1/1 2/2/2 3/3/3 4/4/4 5/5/5 6/6/6 
f 7/7/7 8/8/8 3/3/3 2/2/2 
f 9/9/9 6/6/6 5/5/5 
f 6/6/6 9/9/9 10/10/10 
f 10/10/10 9/9/9 11/11/11 12/12/12 
f 12/12/12 11/11/11 13/13/13 
f 13/13/13 11/11/11 14/14/14 
f 14/14/14 11/11/11 15/15/15 16/16/16 
s off
f 5/5/5 17/17/17 18/18/18 9/9/9 
f 9/9/9 18/18/18 19/19/19 11/11/11 
f 11/11/11 19/19/19 20/20/20 15/15/15 
f 17/17/17 5/5/5 21/21/21 
f 5/5/5 4/4/4 21/21/21 
f 22/22/22 23/23/23 24/24/24 25/25/25 
f 23/23/23 26/26/26 27/27/27 24/24/24 
f 28/28/28 29/29/29 24/24/24 27/27/27 
f 29/29/29 30/30/30 25/25/25 24/24/24 
f 30/30/30 13/13/13 31/31/31 25/25/25 
f 13/13/13 14/14/14 31/31/31 
f 14/14/14 22/22/22 25/25/25 31/31/31 
f 13/13/13 30/30/30 32/32/32 33/33/33 
f 30/30/30 29/29/29 34/34/34 32/32/32 
f 29/29/29 28/28/28 35/35/35 34/34/34 
f 36/36/36 37/37/37 34/34/34 35/35/35 
f 37/37/37 38/38/38 32/32/32 34/34/34 
f 38/38/38 12/12/12 33/33/33 32/32/32 
f 12/12/12 13/13/13 33/33/33 
f 39/39/39 40/40/40 41/41/41 42/42/42 
f 40/40/40 43/43/8 44/44/43 41/41/41 
f 26/26/26 23/23/23 41/41/41 44/44/43 
f 22/22/22 14/14/14 45/45/44 42/42/42 
f 14/14/14 16/16/16 45/45/44 
f 46/46/45 47/47/46 48/48/47 49/49/48 
f 47/47/46 50/50/49 51/51/50 48/48/47 
f 50/50/49 10/10/10 52/52/51 51/51/50 
f 10/10/10 12/12/12 52/52/51 
f 12/12/12 38/38/38 51/51/50 52/52/51 
f 38/38/38 37/37/37 48/48/47 51/51/50 
f 37/37/37 36/36/36 49/49/48 48/48/47 
f 10/10/10 50/50/49 53/53/52 54/54/53 
f 50/50/49 47/47/46 55/55/54 53/53/52 
f 47/47/46 46/46/45 56/56/55 55/55/54 
f 2/2/2 1/1/1 53/53/52 55/55/54 
f 1/1/1 6/6/6 54/54/53 53/53/52 
f 6/6/6 10/10/10 54/54/53 
f 42/42/42 41/41/41 23/23/23 22/22/22 
s 1
f 55/55/54 56/56/55 7/7/7 2/2/2 
s off
f 42/42/42 45/45/44 16/16/16 39/39/39 
s 4
f 57/57/56 58/58/57 59/59/58 60/60/59 61/61/60 62/62/61 
f 63/63/62 62/62/61 61/61/60 64/64/8 
f 65/65/63 59/59/58 58/58/57 
f 58/58/57 66/66/64 65/65/63 
f 66/66/64 67/67/65 68/68/66 65/65/63 
f 67/67/65 69/69/67 68/68/66 
f 69/69/67 70/70/68 68/68/66 
f 70/70/68 16/16/16 15/15/15 68/68/66 
s off
f 59/59/58 65/65/63 71/71/69 72/72/70 
f 65/65/63 68/68/66 73/73/71 71/71/69 
f 68/68/66 15/15/15 20/20/20 73/73/71 
f 72/72/70 74/74/72 59/59/58 
f 59/59/58 74/74/72 60/60/59 
f 75/75/73 76/76/74 77/77/75 78/78/76 
f 78/78/76 77/77/75 79/79/77 80/80/78 
f 81/81/79 79/79/77 77/77/75 82/82/80 
f 82/82/80 77/77/75 76/76/74 83/83/81 
f 83/83/81 76/76/74 84/84/82 69/69/67 
f 69/69/67 84/84/82 70/70/68 
f 70/70/68 84/84/82 76/76/74 75/75/73 
f 69/69/67 85/85/83 86/86/84 83/83/81 
f 83/83/81 86/86/84 87/87/85 82/82/80 
f 82/82/80 87/87/85 88/88/86 81/81/79 
f 89/89/87 88/88/86 87/87/85 90/90/88 
f 90/90/88 87/87/85 86/86/84 91/91/89 
f 91/91/89 86/86/84 85/85/83 67/67/65 
f 67/67/65 85/85/83 69/69/67 
f 39/39/39 92/92/90 93/93/91 40/40/40 
f 40/40/40 93/93/91 94/94/92 43/43/8 
f 80/80/78 94/94/92 93/93/91 78/78/76 
f 75/75/73 92/92/90 95/95/93 70/70/68 
f 70/70/68 95/95/93 16/16/16 
f 96/96/94 97/97/95 98/98/96 99/99/97 
f 99/99/97 98/98/96 100/100/98 101/101/99 
f 101/101/99 100/100/98 102/102/100 66/66/64 
f 66/66/64 102/102/100 67/67/65 
f 67/67/65 102/102/100 100/100/98 91/91/89 
f 91/91/89 100/100/98 98/98/96 90/90/88 
f 90/90/88 98/98/96 97/97/95 89/89/87 
f 66/66/64 103/103/101 104/104/102 101/101/99 
f 101/101/99 104/104/102 105/105/103 99/99/97 
f 99/99/97 105/105/103 106/106/104 96/96/94 
f 62/62/61 105/105/103 104/104/102 57/57/56 
f 57/57/56 104/104/102 103/103/101 58/58/57 
f 58/58/57 103/103/101 66/66/64 
f 92/92/90 75/75/73 78/78/76 93/93/91 
s 1
f 105/105/103 62/62/61 63/63/62 106/106/104 
s off
f 92/92/90 39/39/39 16/16/16 95/95/93 
s 4
f 107/107/105 108/108/106 109/109/107 4/110/4 3/111/3 110/112/108 
f 7/113/7 110/112/108 3/111/3 8/114/8 
f 111/115/109 109/109/107 108/108/106 
f 108/108/106 112/116/110 111/115/109 
f 112/116/110 113/117/111 114/118/112 111/115/109 
f 113/117/111 115/119/113 114/118/112 
f 115/119/113 116/120/114 114/118/112 
f 116/120/114 117/121/115 118/122/116 114/118/112 
s off
f 109/109/107 111/115/109 18/123/18 17/124/17 
f 111/115/109 114/118/112 19/125/19 18/123/18 
f 114/118/112 118/122/116 20/126/20 19/125/19 
f 17/124/17 21/127/21 109/109/107 
f 109/109/107 21/127/21 4/110/4 
f 119/128/117 120/129/118 121/130/119 122/131/120 
f 122/131/120 121/130/119 27/132/27 26/133/26 
f 28/134/28 27/132/27 121/130/119 123/135/121 
f 123/135/121 121/130/119 120/129/118 124/136/122 
f 124/136/122 120/129/118 125/137/123 115/119/113 
f 115/119/113 125/137/123 116/120/114 
f 116/120/114 125/137/123 120/129/118 119/128/117 
f 115/119/113 126/138/124 127/139/125 124/136/122 
f 124/136/122 127/139/125 128/140/126 123/135/121 
f 123/135/121 128/140/126 35/141/35 28/134/28 
f 36/142/36 35/141/35 128/140/126 129/143/127 
f 129/143/127 128/140/126 127/139/125 130/144/128 
f 130/144/128 127/139/125 126/138/124 113/117/111 
f 113/117/111 126/138/124 115/119/113 
f 131/145/129 132/146/130 133/147/131 134/148/132 
f 134/148/132 133/147/131 44/149/43 43/150/8 
f 26/133/26 44/149/43 133/147/131 122/131/120 
f 119/128/117 132/146/130 135/151/133 116/120/114 
f 116/120/114 135/151/133 117/121/115 
f 46/152/45 49/153/48 136/154/134 137/155/135 
f 137/155/135 136/154/134 138/156/136 139/157/137 
f 139/157/137 138/156/136 140/158/138 112/116/110 
f 112/116/110 140/158/138 113/117/111 
f 113/117/111 140/158/138 138/156/136 130/144/128 
f 130/144/128 138/156/136 136/154/134 129/143/127 
f 129/143/127 136/154/134 49/153/48 36/142/36 
f 112/116/110 141/159/139 142/160/140 139/157/137 
f 139/157/137 142/160/140 143/161/141 137/155/135 
f 137/155/135 143/161/141 56/162/55 46/152/45 
f 110/112/108 143/161/141 142/160/140 107/107/105 
f 107/107/105 142/160/140 141/159/139 108/108/106 
f 108/108/106 141/159/139 112/116/110 
f 132/146/130 119/128/117 122/131/120 133/147/131 
s 1
f 143/161/141 110/112/108 7/113/7 56/162/55 
s off
f 132/146/130 131/145/129 117/121/115 135/151/133 
s 4
f 144/163/142 145/164/143 61/165/60 60/166/59 146/167/144 147/168/145 
f 63/169/62 64/170/8 61/165/60 145/164/143 
f 148/171/146 147/168/145 146/167/144 
f 147/168/145 148/171/146 149/172/147 
f 149/172/147 148/171/146 150/173/148 151/174/149 
f 151/174/149 150/173/148 152/175/150 
f 152/175/150 150/173/148 153/176/151 
f 153/176/151 150/173/148 118/122/116 117/121/115 
s off
f 146/167/144 72/177/70 71/178/69 148/171/146 
f 148/171/146 71/178/69 73/179/71 150/173/148 
f 150/173/148 73/179/71 20/126/20 118/122/116 
f 72/177/70 146/167/144 74/180/72 
f 146/167/144 60/166/59 74/180/72 
f 154/181/152 155/182/153 156/183/154 157/184/155 
f 155/182/153 80/185/78 79/186/77 156/183/154 
f 81/187/79 158/188/156 156/183/154 79/186/77 
f 158/188/156 159/189/157 157/184/155 156/183/154 
f 159/189/157 152/175/150 160/190/158 157/184/155 
f 152/175/150 153/176/151 160/190/158 
f 153/176/151 154/181/152 157/184/155 160/190/158 
f 152/175/150 159/189/157 161/191/159 162/192/160 
f 159/189/157 158/188/156 163/193/161 161/191/159 
f 158/188/156 81/187/79 88/194/86 163/193/161 
f 89/195/87 164/196/162 163/193/161 88/194/86 
f 164/196/162 165/197/163 161/191/159 163/193/161 
f 165/197/163 151/174/149 162/192/160 161/191/159 
f 151/174/149 152/175/150 162/192/160 
f 131/145/129 134/148/132 166/198/164 167/199/165 
f 134/148/132 43/150/8 94/200/92 166/198/164 
f 80/185/78 155/182/153 166/198/164 94/200/92 
f 154/181/152 153/176/151 168/201/166 167/199/165 
f 153/176/151 117/121/115 168/201/166 
f 96/202/94 169/203/167 170/204/168 97/205/95 
f 169/203/167 171/206/169 172/207/170 170/204/168 
f 171/206/169 149/172/147 173/208/171 172/207/170 
f 149/172/147 151/174/149 173/208/171 
f 151/174/149 165/197/163 172/207/170 173/208/171 
f 165/197/163 164/196/162 170/204/168 172/207/170 
f 164/196/162 89/195/87 97/205/95 170/204/168 
f 149/172/147 171/206/169 174/209/172 175/210/173 
f 171/206/169 169/203/167 176/211/174 174/209/172 
f 169/203/167 96/202/94 106/212/104 176/211/174 
f 145/164/143 144/163/142 174/209/172 176/211/174 
f 144/163/142 147/168/145 175/210/173 174/209/172 
f 147/168/145 149/172/147 175/210/173 
f 167/199/165 166/198/164 155/182/153 154/181/152 
s 1
f 176/211/174 106/212/104 63/169/62 145/164/143 
s off
f 167/199/165 168/201/166 117/121/115 131/145/129 
# 148 polygons - 44 triangles

